<?xml version="1.0" standalone="no"?>
<!DOCTYPE svg PUBLIC "-//W3C//DTD SVG 20010904//EN"
 "http://www.w3.org/TR/2001/REC-SVG-20010904/DTD/svg10.dtd">
<svg version="1.0" xmlns="http://www.w3.org/2000/svg"
 width="700.000000pt" height="700.000000pt" viewBox="0 0 700.000000 700.000000"
 preserveAspectRatio="xMidYMid meet">
<metadata>
Created by potrace 1.14, written by Peter Selinger 2001-2017
</metadata>
<g transform="translate(0.000000,700.000000) scale(0.100000,-0.100000)"
fill="#000000" stroke="none">
<path d="M2683 5436 c-386 -204 -704 -374 -707 -377 -5 -5 240 -625 263 -666
5 -9 142 62 461 238 250 138 472 260 493 270 l37 19 0 -1435 0 -1435 -565 0
-565 0 0 -370 0 -370 1485 0 1485 0 0 370 0 370 -490 0 -490 0 0 1880 0 1880
-352 -1 -353 -1 -702 -372z"/>
</g>
</svg>
