<?xml version="1.0" standalone="no"?>
<!DOCTYPE svg PUBLIC "-//W3C//DTD SVG 20010904//EN"
 "http://www.w3.org/TR/2001/REC-SVG-20010904/DTD/svg10.dtd">
<svg version="1.0" xmlns="http://www.w3.org/2000/svg"
 width="850.000000pt" height="850.000000pt" viewBox="0 0 850.000000 850.000000"
 preserveAspectRatio="xMidYMid meet">
<metadata>
Created by potrace 1.14, written by Peter Selinger 2001-2017
</metadata>
<g transform="translate(0.000000,850.000000) scale(0.100000,-0.100000)"
fill="#000000" stroke="none">
<path d="M3075 7190 c-261 -52 -473 -318 -605 -763 -26 -86 -65 -243 -74 -296
-4 -21 -13 -25 -196 -69 -574 -138 -903 -404 -895 -723 3 -93 10 -127 42 -209
23 -57 77 -156 93 -170 3 -3 17 -21 31 -40 67 -89 222 -228 354 -317 200 -134
528 -278 770 -338 29 -7 44 -14 35 -18 -8 -3 -81 -26 -162 -52 -368 -116 -688
-296 -893 -500 -46 -45 -134 -150 -152 -180 -87 -143 -114 -221 -118 -339 -10
-293 248 -542 715 -691 107 -34 94 -30 230 -61 63 -15 120 -28 127 -30 12 -3
16 -15 53 -174 104 -447 296 -764 530 -872 65 -30 94 -37 176 -43 220 -14 484
147 688 422 36 48 70 93 75 99 29 35 142 246 194 364 57 128 154 418 149 443
-1 4 2 7 7 7 5 0 12 -17 16 -37 9 -48 85 -277 120 -363 198 -479 505 -826 811
-916 117 -34 270 -19 369 36 134 74 219 170 335 375 55 97 152 383 184 541 24
115 26 118 85 129 28 5 138 31 246 59 6 2 17 5 25 8 8 3 57 20 108 38 351 121
577 313 635 541 29 111 4 272 -61 389 -177 322 -592 604 -1132 770 -74 22
-136 43 -139 45 -2 3 7 5 20 5 13 0 60 12 104 26 44 14 87 27 95 29 9 1 54 17
100 35 364 139 663 334 845 551 74 88 150 235 170 328 75 360 -211 646 -820
819 -86 25 -227 57 -238 54 -12 -3 -24 34 -52 158 -15 63 -28 121 -30 128 -3
7 -4 13 -5 15 0 3 -54 157 -75 216 -51 140 -157 313 -250 406 -114 115 -233
169 -375 169 -234 -1 -472 -157 -686 -449 -153 -208 -285 -484 -366 -763 -18
-62 -35 -112 -39 -112 -4 0 -10 15 -14 33 -8 38 -72 239 -90 282 -67 164 -109
252 -176 371 -39 70 -44 79 -49 84 -3 3 -23 32 -45 65 -158 236 -372 413 -567
470 -66 19 -176 26 -233 15z"/>
</g>
</svg>
